<svg xmlns="http://www.w3.org/2000/svg" viewBox="0 0 230 220"><path d="M43 160c-12-38 14-84 65-88 48-4 77 29 63 71-11 33-42 47-80 43-25-3-41-10-48-26z" fill="#171717" stroke="#171717" stroke-width="8"/><circle cx="86" cy="112" r="12" fill="#fffaf0"/><circle cx="134" cy="112" r="12" fill="#fffaf0"/><circle cx="86" cy="114" r="5"/><circle cx="134" cy="114" r="5"/><path d="M88 143c16 13 33 13 49 0" fill="none" stroke="#ffd234" stroke-width="7" stroke-linecap="round"/><path d="M68 169v16m82-16v16" stroke="#171717" stroke-width="16" stroke-linecap="round"/><path d="M69 74c-7-21 11-29 25-14m34 0c6-21 26-16 24 2" fill="none" stroke="#6b6b6b" stroke-width="7" stroke-linecap="round"/><path d="M27 128l-19-12m205 14 17-12" stroke="#e84938" stroke-width="5" stroke-linecap="round"/></svg>
